<svg xmlns="http://www.w3.org/2000/svg" viewBox="0 0 512 512">
  <defs>
    <linearGradient id="bg512" x1="0" y1="0" x2="1" y2="1">
      <stop offset="0%" stop-color="#0f0f0f"/>
      <stop offset="100%" stop-color="#1a1a1a"/>
    </linearGradient>
    <linearGradient id="g512" x1="0" y1="0" x2="0" y2="1">
      <stop offset="0%" stop-color="#E8D48B"/>
      <stop offset="50%" stop-color="#C9A84C"/>
      <stop offset="100%" stop-color="#B8960F"/>
    </linearGradient>
    <linearGradient id="gl512" x1="0" y1="0" x2="0" y2="1">
      <stop offset="0%" stop-color="#F0E6C0"/>
      <stop offset="100%" stop-color="#E8D48B"/>
    </linearGradient>
  </defs>
  <rect width="512" height="512" rx="96" fill="url(#bg512)"/>
  <path d="M256 52 L460 256 L256 460 L52 256 Z" fill="none" stroke="url(#g512)" stroke-width="2.5" opacity="0.35"/>
  <path d="M256 80 L432 256 L256 432 L80 256 Z" fill="none" stroke="url(#g512)" stroke-width="1" opacity="0.2"/>
  <rect x="232" y="120" width="48" height="272" rx="4" fill="url(#g512)"/>
  <rect x="160" y="185" width="192" height="48" rx="4" fill="url(#g512)"/>
  <path d="M170 340 Q170 310 200 300 L232 300 L232 392 L200 392 Q170 382 170 340 Z" fill="url(#gl512)" opacity="0.15"/>
  <path d="M342 340 Q342 310 312 300 L280 300 L280 392 L312 392 Q342 382 342 340 Z" fill="url(#gl512)" opacity="0.15"/>
  <g fill="url(#g512)" opacity="0.5">
    <path d="M256 64 L262 70 L256 76 L250 70 Z"/>
    <path d="M256 436 L262 442 L256 448 L250 442 Z"/>
    <path d="M64 256 L70 262 L64 268 L58 262 Z"/>
    <path d="M448 256 L454 262 L448 268 L442 262 Z"/>
  </g>
</svg>
